<?xml version="1.0" encoding="utf-8"?>
<!-- Generator: Adobe Illustrator 14.0.0, SVG Export Plug-In . SVG Version: 6.00 Build 43363)  -->
<!DOCTYPE svg PUBLIC "-//W3C//DTD SVG 1.1//EN" "http://www.w3.org/Graphics/SVG/1.1/DTD/svg11.dtd">
<svg version="1.1" xmlns="http://www.w3.org/2000/svg" xmlns:xlink="http://www.w3.org/1999/xlink" x="0px" y="0px"
	 width="582.897px" height="44px" viewBox="0 0 582.897 44" enable-background="new 0 0 582.897 44" xml:space="preserve">
<g id="Layer_2">
</g>
<g id="Layer_1">
	<path fill="#F9F0EA" d="M564.524,9.5c-4.443,3.43-9.039,6.978-18.061,6.978c-9.023,0-13.619-3.548-18.064-6.978
		c-4.512-3.483-9.176-7.084-18.369-7.084S496.17,6.017,491.661,9.5c-4.443,3.43-9.041,6.978-18.063,6.978S459.981,12.93,455.536,9.5
		c-4.51-3.482-9.176-7.083-18.369-7.083c-9.191,0-13.855,3.601-18.367,7.084c-4.443,3.43-9.039,6.978-18.061,6.978
		S387.122,12.93,382.676,9.5c-4.51-3.482-9.174-7.083-18.369-7.083c-9.191,0-13.857,3.601-18.367,7.084
		c-4.443,3.43-9.041,6.978-18.063,6.978S314.26,12.93,309.816,9.5c-4.512-3.482-9.176-7.083-18.368-7.083
		c-9.195,0-13.859,3.601-18.372,7.084c-4.443,3.43-9.039,6.978-18.062,6.978S241.396,12.93,236.951,9.5
		c-4.512-3.483-9.177-7.084-18.369-7.084c-9.194,0-13.859,3.601-18.37,7.084c-4.443,3.43-9.041,6.978-18.062,6.978
		c-9.022,0-13.618-3.548-18.062-6.979c-4.511-3.482-9.176-7.083-18.37-7.083c-9.192,0-13.856,3.601-18.367,7.084
		c-4.444,3.43-9.04,6.978-18.061,6.978S95.672,12.93,91.228,9.5c-4.511-3.482-9.175-7.083-18.369-7.083
		c-9.193,0-13.857,3.601-18.369,7.084c-4.443,3.43-9.04,6.978-18.061,6.978c-9.022,0-13.617-3.548-18.062-6.979
		C13.856,6.017,9.192,2.417,0,2.417V45.55h291.448h291.449V2.417C573.702,2.417,569.038,6.017,564.524,9.5z"/>
	<path fill="#F9F0EA" d="M350.104-93.31c0,0-42.1-7.115-183.354,26.684C25.497-32.827-10.702-85.305-10.702-85.305v60.038h360.806
		V-93.31z"/>
	<linearGradient id="SVGID_1_" gradientUnits="userSpaceOnUse" x1="302.7822" y1="230.4502" x2="302.7822" y2="299.1172">
		<stop  offset="0" style="stop-color:#FDFDFE;stop-opacity:0"/>
		<stop  offset="0.155" style="stop-color:#FBF6F3;stop-opacity:0.155"/>
		<stop  offset="0.3786" style="stop-color:#F9F1EC;stop-opacity:0.3786"/>
		<stop  offset="1" style="stop-color:#F9F0EA"/>
	</linearGradient>
	<rect x="11.333" y="230.45" fill="url(#SVGID_1_)" width="582.897" height="68.667"/>
</g>
</svg>
